<svg width="250" height="250" viewBox="0 0 250 250" fill="none" xmlns="http://www.w3.org/2000/svg">
<circle cx="125" cy="125" r="125" fill="#342791"/>
<path d="M89.9844 150H83.4453V106.652L70.332 111.469V105.562L88.9648 98.5664H89.9844V150ZM141.137 128.168C141.137 135.785 139.836 141.445 137.234 145.148C134.633 148.852 130.566 150.703 125.035 150.703C119.574 150.703 115.531 148.898 112.906 145.289C110.281 141.656 108.922 136.242 108.828 129.047V120.363C108.828 112.84 110.129 107.25 112.73 103.594C115.332 99.9375 119.41 98.1094 124.965 98.1094C130.473 98.1094 134.527 99.8789 137.129 103.418C139.73 106.934 141.066 112.371 141.137 119.73V128.168ZM134.633 119.273C134.633 113.766 133.859 109.758 132.312 107.25C130.766 104.719 128.316 103.453 124.965 103.453C121.637 103.453 119.211 104.707 117.688 107.215C116.164 109.723 115.379 113.578 115.332 118.781V129.188C115.332 134.719 116.129 138.809 117.723 141.457C119.34 144.082 121.777 145.395 125.035 145.395C128.246 145.395 130.625 144.152 132.172 141.668C133.742 139.184 134.562 135.27 134.633 129.926V119.273ZM181.566 128.168C181.566 135.785 180.266 141.445 177.664 145.148C175.062 148.852 170.996 150.703 165.465 150.703C160.004 150.703 155.961 148.898 153.336 145.289C150.711 141.656 149.352 136.242 149.258 129.047V120.363C149.258 112.84 150.559 107.25 153.16 103.594C155.762 99.9375 159.84 98.1094 165.395 98.1094C170.902 98.1094 174.957 99.8789 177.559 103.418C180.16 106.934 181.496 112.371 181.566 119.73V128.168ZM175.062 119.273C175.062 113.766 174.289 109.758 172.742 107.25C171.195 104.719 168.746 103.453 165.395 103.453C162.066 103.453 159.641 104.707 158.117 107.215C156.594 109.723 155.809 113.578 155.762 118.781V129.188C155.762 134.719 156.559 138.809 158.152 141.457C159.77 144.082 162.207 145.395 165.465 145.395C168.676 145.395 171.055 144.152 172.602 141.668C174.172 139.184 174.992 135.27 175.062 129.926V119.273Z" fill="#E5E5E5"/>
</svg>
